<?xml version="1.0" encoding="utf-8"?>
<!-- Generator: Adobe Illustrator 25.1.0, SVG Export Plug-In . SVG Version: 6.00 Build 0)  -->
<svg version="1.1" id="Layer_1" xmlns="http://www.w3.org/2000/svg" xmlns:xlink="http://www.w3.org/1999/xlink" x="0px" y="0px"
	 viewBox="0 0 595.28 177.89" style="enable-background:new 0 0 595.28 177.89;" xml:space="preserve">
<style type="text/css">
	.st0{fill:#3A5C59;}
</style>
<g>
	<path class="st0" d="M128.27,117.48L101.59,74.4c-0.23-0.39-0.23-0.71,0-0.94l25.18-32.11c0.39-0.53,0.57-0.96,0.57-1.27
		c0-0.39-0.16-0.68-0.46-0.86s-0.73-0.29-1.27-0.29h-13.98c-1.08,0-1.89,0.39-2.42,1.16L82.9,72.77C82.74,73,82.56,73.08,82.37,73
		c-0.2-0.07-0.29-0.26-0.29-0.57V40.89c0-1.31-0.66-1.96-1.97-1.96H67.76c-1.31,0-1.97,0.65-1.97,1.96v76.94
		c0,1.31,0.66,1.97,1.97,1.97h12.35c1.31,0,1.97-0.65,1.97-1.97v-22.3c0-0.23,0.12-0.49,0.35-0.81l7.04-9.01
		c0.16-0.23,0.34-0.35,0.57-0.35c0.23,0,0.39,0.12,0.46,0.35l20.23,32.81c0.53,0.85,1.31,1.27,2.3,1.27h13.98
		c1.08,0,1.62-0.42,1.62-1.27C128.62,118.13,128.5,117.79,128.27,117.48"/>
	<path class="st0" d="M149.83,38c-1.82-1.77-4.21-2.67-7.23-2.67c-2.93,0-5.31,0.91-7.15,2.73c-1.85,1.8-2.77,4.14-2.77,6.99
		c0,2.85,0.92,5.18,2.77,6.99c1.84,1.8,4.23,2.71,7.15,2.71c3.02,0,5.41-0.88,7.23-2.65c1.8-1.78,2.71-4.13,2.71-7.05
		C152.53,42.12,151.63,39.78,149.83,38 M148.84,60.41h-12.36c-1.31,0-1.96,0.66-1.96,1.97v55.45c0,1.31,0.65,1.97,1.96,1.97h12.36
		c1.31,0,1.96-0.65,1.96-1.97V62.38C150.8,61.07,150.16,60.41,148.84,60.41"/>
	<path class="st0" d="M206.02,65.15c-3.76-3.78-8.74-5.67-14.9-5.67c-6.15,0-10.82,2.17-13.97,6.48c-0.16,0.23-0.3,0.3-0.46,0.23
		c-0.16-0.07-0.23-0.27-0.23-0.57v-3.23c0-1.31-0.67-1.98-1.96-1.98h-12.36c-1.31,0-1.96,0.67-1.96,1.98v55.45
		c0,1.31,0.65,1.96,1.96,1.96h12.36c1.29,0,1.96-0.65,1.96-1.96V83.86c0-3.07,0.88-5.58,2.65-7.5c1.77-1.93,4.08-2.9,6.93-2.9
		c2.85,0,5.12,0.97,6.81,2.9c1.7,1.92,2.54,4.43,2.54,7.5v33.97c0,1.31,0.67,1.96,1.97,1.96h12.36c1.3,0,1.97-0.65,1.97-1.96V80.51
		C211.71,74.05,209.82,68.92,206.02,65.15"/>
	<path class="st0" d="M265.77,65.15c-3.78-3.78-8.74-5.67-14.9-5.67c-6.17,0-10.82,2.17-13.97,6.48c-0.16,0.23-0.32,0.3-0.46,0.23
		c-0.16-0.07-0.23-0.27-0.23-0.57v-3.23c0-1.31-0.67-1.98-1.97-1.98h-12.37c-1.29,0-1.96,0.67-1.96,1.98v55.45
		c0,1.31,0.67,1.96,1.96,1.96h12.37c1.31,0,1.97-0.65,1.97-1.96V83.86c0-3.07,0.88-5.58,2.65-7.5c1.77-1.93,4.08-2.9,6.92-2.9
		c2.86,0,5.12,0.97,6.83,2.9c1.68,1.92,2.54,4.43,2.54,7.5v33.97c0,1.31,0.65,1.96,1.96,1.96h12.36c1.31,0,1.96-0.65,1.96-1.96
		V80.51C271.41,74.05,269.52,68.92,265.77,65.15"/>
	<path class="st0" d="M311.72,60.41h-10.39c-0.46,0-0.69-0.23-0.69-0.69V46.66c0-1.29-0.66-1.96-1.96-1.96H286.9
		c-1.31,0-1.98,0.67-1.98,1.96v13.05c0,0.46-0.23,0.69-0.69,0.69h-5.88c-1.31,0-1.96,0.66-1.96,1.97v9.12
		c0,1.31,0.65,1.96,1.96,1.96h5.88c0.46,0,0.69,0.23,0.69,0.71v30.26c0.09,5.86,1.7,9.85,4.86,12.02c3.16,2.15,7.94,3.23,14.33,3.23
		c1.31,0,3.41-0.07,6.35-0.23c1.31-0.16,1.97-0.85,1.97-2.07v-9.94c0-1.31-0.66-1.96-1.97-1.96h-3.24c-2.3,0-3.98-0.59-5.02-1.79
		c-1.04-1.2-1.56-3.06-1.56-5.61v-23.9c0-0.48,0.23-0.71,0.69-0.71h10.39c1.31,0,1.97-0.65,1.97-1.96v-9.12
		C313.71,61.07,313.05,60.41,311.72,60.41"/>
	<path class="st0" d="M354.84,83.86h-19.65c-0.46,0-0.65-0.23-0.57-0.69c0.09-0.46,0.32-1.43,0.69-2.89
		c0.62-2.15,1.76-3.84,3.41-5.02c1.64-1.2,3.71-1.8,6.17-1.8c2.63,0,4.77,0.66,6.48,1.97c1.69,1.3,2.89,3.07,3.58,5.31
		c0.3,0.92,0.46,1.82,0.46,2.65C355.4,83.72,355.21,83.86,354.84,83.86 M371.69,84.9c-1.31-8.08-4.18-14.36-8.61-18.83
		c-4.43-4.47-10.41-6.71-17.96-6.71c-6.39,0-11.91,1.74-16.57,5.21c-4.66,3.46-7.76,8.05-9.3,13.75c-0.85,3.07-1.27,6.85-1.27,11.32
		c0,3.76,0.46,7.36,1.39,10.74c1.61,6.31,4.76,11.28,9.42,14.9c4.66,3.62,10.53,5.42,17.61,5.42c4.71,0,9.03-0.91,13-2.71
		c3.96-1.8,7.22-4.3,9.77-7.45c0.3-0.38,0.46-0.84,0.46-1.39c0-0.46-0.23-0.92-0.69-1.38l-6.6-6.35c-0.38-0.39-0.81-0.57-1.27-0.57
		c-0.53,0-1.04,0.26-1.5,0.81c-2.7,3.31-6.58,5.08-11.67,5.31c-3.24,0-5.99-0.63-8.25-1.9c-2.28-1.27-3.79-3.1-4.57-5.48
		c-0.3-0.78-0.58-1.97-0.81-3.59c0-0.46,0.23-0.69,0.69-0.69h35.47c1.31,0,1.96-0.65,1.96-1.96
		C372.22,90.27,371.99,87.45,371.69,84.9"/>
	<path class="st0" d="M414.33,99.11c-0.61,2.01-1.73,3.65-3.35,4.92s-3.65,1.9-6.11,1.9c-2.4,0-4.46-0.63-6.19-1.9
		c-1.73-1.27-2.95-2.95-3.64-5.04c-0.92-1.84-1.39-4.91-1.39-9.23c0-3.94,0.53-7.05,1.62-9.36c0.77-2.08,1.96-3.75,3.58-5.02
		c1.62-1.27,3.59-1.92,5.9-1.92c2.38,0,4.38,0.65,6,1.92c1.62,1.27,2.77,2.94,3.46,5.02c0.39,1.15,0.67,2.39,0.83,3.69
		c0.15,1.31,0.23,3.16,0.23,5.55C415.25,93.64,414.93,96.8,414.33,99.11 M429.59,60.41h-12.36c-1.31,0-1.96,0.66-1.96,1.97v1.96
		c0,0.3-0.09,0.51-0.23,0.58c-0.16,0.07-0.35,0-0.59-0.23c-3.23-3.48-7.73-5.21-13.52-5.21c-5.07,0-9.55,1.43-13.4,4.29
		c-3.85,2.84-6.58,6.62-8.19,11.32c-1.38,3.76-2.07,8.66-2.07,14.67c0,5.63,0.57,10.2,1.73,13.75c1.76,5.39,4.75,9.3,8.94,11.73
		c4.2,2.42,8.8,3.64,13.81,3.64c5.63,0,9.87-1.55,12.7-4.62c0.24-0.23,0.44-0.34,0.59-0.29c0.15,0.03,0.23,0.17,0.23,0.4
		c0,4.77-1.34,8.23-3.99,10.39c-2.65,2.17-6.45,3.24-11.38,3.24c-1.84,0-4.2-0.2-7.04-0.57c-0.62-0.16-1.14-0.06-1.56,0.29
		c-0.43,0.34-0.63,0.82-0.63,1.44l-0.46,10.75c0,1.29,0.58,1.99,1.73,2.07c3.24,0.38,6.12,0.58,8.66,0.58
		c9.09,0,16.53-2.17,22.3-6.48c5.78-4.31,8.67-11.51,8.67-21.59V62.38C431.53,61.07,430.89,60.41,429.59,60.41"/>
	<path class="st0" d="M475.43,60.98c-1.62-0.92-3.65-1.39-6.11-1.39c-5.24,0-9.4,2.24-12.48,6.71c-0.23,0.23-0.43,0.3-0.57,0.23
		c-0.16-0.07-0.23-0.27-0.23-0.57v-3.58c0-1.31-0.67-1.97-1.96-1.97H441.7c-1.31,0-1.96,0.66-1.96,1.97v55.45
		c0,1.31,0.65,1.96,1.96,1.96h12.36c1.29,0,1.96-0.65,1.96-1.96V86.87c0-3.01,0.95-5.42,2.89-7.22c1.91-1.8,4.27-2.83,7.04-3.06
		c1.24-0.16,2.12-0.23,2.67-0.23c1,0,2.12,0.14,3.35,0.46c0.77,0.14,1.33,0.14,1.67,0c0.35-0.16,0.56-0.58,0.63-1.27l2.19-12.13
		C476.71,62.26,476.36,61.46,475.43,60.98"/>
	<path class="st0" d="M513.22,99.11c0,2.78-1.16,5.04-3.46,6.82c-2.31,1.78-5.12,2.65-8.44,2.65c-2.47,0-4.44-0.59-5.94-1.79
		c-1.5-1.2-2.25-2.83-2.25-4.91c0-2.39,1-4.24,3-5.55c2.01-1.29,4.73-1.96,8.19-1.96h8.21c0.46,0,0.69,0.23,0.69,0.69V99.11z
		 M526.2,69.19c-2.19-3-5.25-5.37-9.17-7.1c-3.94-1.74-8.41-2.61-13.42-2.61c-4.54,0-8.68,0.72-12.42,2.15
		c-3.74,1.41-6.74,3.41-9,5.94c-2.28,2.54-3.61,5.39-3.99,8.56c-0.07,0.46,0.06,0.82,0.42,1.1c0.35,0.27,0.83,0.44,1.45,0.52
		l12.82,1.62c1.07,0.07,1.84-0.42,2.3-1.5c0.53-1.39,1.56-2.47,3.06-3.23c1.51-0.78,3.41-1.17,5.72-1.17c3.01,0,5.3,0.72,6.88,2.15
		c1.57,1.41,2.36,3.41,2.36,5.94v2.42c0,0.46-0.23,0.69-0.69,0.69h-11.67c-7.71,0-13.64,1.64-17.79,4.92s-6.25,7.88-6.25,13.8
		c0,5.7,1.82,10.01,5.44,12.94c3.62,2.93,8.39,4.38,14.32,4.38c7.01,0,12.29-1.96,15.82-5.88c0.23-0.23,0.42-0.34,0.58-0.29
		c0.16,0.03,0.23,0.2,0.23,0.52v2.77c0,1.31,0.65,1.96,1.96,1.96h12.36c1.31,0,1.96-0.65,1.96-1.96V79.25
		C529.49,75.55,528.39,72.19,526.2,69.19"/>
</g>
</svg>
