<?xml version="1.0" encoding="UTF-8"?>
<svg width="49px" height="50px" viewBox="0 0 49 50" version="1.1" xmlns="http://www.w3.org/2000/svg" xmlns:xlink="http://www.w3.org/1999/xlink">
    <!-- Generator: sketchtool 64 (101010) - https://sketch.com -->
    <title>62E3D74C-8E88-49CF-9751-2E30C3F62A50</title>
    <desc>Created with sketchtool.</desc>
    <defs>
        <path d="M0,0.566108374 L0,7.57672414 C0,7.68517241 0.043546798,7.78901478 0.119753695,7.86522167 L0.119753695,7.86522167 L8.05406404,15.7919951 C8.13027094,15.868202 8.23453202,15.91133 8.34256158,15.91133 L8.34256158,15.91133 L15.3452217,15.91133 C15.7090887,15.91133 15.8912315,15.4716749 15.6337192,15.2141626 L15.6337192,15.2141626 L0.697167488,0.277610837 C0.613842365,0.194285714 0.511674877,0.157019704 0.411182266,0.157019704 L0.411182266,0.157019704 C0.201403941,0.157019704 0,0.319901478 0,0.566108374" id="path-1"></path>
        <path d="M0,0.565270936 L0,7.57546798 C0,7.68433498 0.043546798,7.78775862 0.119753695,7.86480296 L0.119753695,7.86480296 L24.3765764,32.1212069 C24.453202,32.1978325 24.5574631,32.2413793 24.66633,32.2413793 L24.66633,32.2413793 L31.6761084,32.2413793 C32.0399754,32.2413793 32.2221182,31.8017241 31.9650246,31.5442118 L31.9650246,31.5442118 L0.697167488,0.27635468 C0.613842365,0.193029557 0.511674877,0.155763547 0.411182266,0.155763547 L0.411182266,0.155763547 C0.201403941,0.155763547 0,0.319064039 0,0.565270936" id="path-3"></path>
        <path d="M0.289334975,4.09758621 C0.129802956,4.25669951 0.129802956,4.51546798 0.288916256,4.675 L0.288916256,4.675 L40.7083005,45.1019212 C40.7840887,45.1785468 40.8883498,45.2216749 40.996798,45.2216749 L40.996798,45.2216749 L48.0074138,45.2216749 C48.2477586,45.2216749 48.4089655,45.029064 48.4160837,44.8243103 L48.4160837,44.8243103 L48.4160837,44.7962562 C48.412734,44.7007882 48.375468,44.604064 48.2959113,44.5245074 L48.2959113,44.5245074 L4.08293103,0.311527094 L0.289334975,4.09758621 Z" id="path-5"></path>
        <path d="M4.57325123,-0.00209359606 C4.51923645,-0.00209359606 4.46438424,0.0108866995 4.41874384,0.027635468 L4.41874384,0.027635468 C4.37687192,0.0443842365 4.33876847,0.0695073892 4.30527094,0.098817734 L4.30527094,0.098817734 L0.314876847,4.08083744 L4.39738916,8.16334975 L11.8677586,0.693399015 C12.1231773,0.437980296 11.9385222,-0.00209359606 11.5784236,-0.00209359606 L11.5784236,-0.00209359606 L4.57325123,-0.00209359606 Z" id="path-7"></path>
        <path d="M12.5226355,0.416206897 C12.4146059,0.416206897 12.3107635,0.458916256 12.2337192,0.535541872 L12.2337192,0.535541872 L0.105517241,12.6641626 L4.18802956,16.7466749 L19.8221675,1.11295567 C20.0792611,0.855862069 19.8971182,0.416206897 19.5332512,0.416206897 L19.5332512,0.416206897 L12.5226355,0.416206897 Z" id="path-9"></path>
        <path d="M20.8982759,0.416206897 C20.7898276,0.416206897 20.6855665,0.458916256 20.6097783,0.535541872 L20.6097783,0.535541872 L0.314876847,20.8300246 L4.3982266,24.9125369 L28.1973892,1.11295567 C28.2769458,1.03381773 28.3142118,0.937093596 28.3175616,0.841206897 L28.3175616,0.841206897 L28.3175616,0.813152709 C28.3104433,0.608399015 28.1492365,0.416206897 27.9088916,0.416206897 L27.9088916,0.416206897 L20.8982759,0.416206897 Z" id="path-11"></path>
    </defs>
    <g id="Login" stroke="none" stroke-width="1" fill="none" fill-rule="evenodd">
        <g id="Login_1" transform="translate(-695.000000, -169.000000)">
            <g id="login" transform="translate(483.000000, 130.000000)">
                <g id="Group" transform="translate(172.000000, 0.000000)">
                    <g id="Group-5">
                        <g id="Logo" transform="translate(40.000000, 39.000000)">
                            <g id="Group-4">
                                <g>
                                    <g id="Group-26">
                                        <g id="Group-3" transform="translate(0.000000, 33.500468)">
                                            <mask id="mask-2" fill="white">
                                                <use xlink:href="#path-1"></use>
                                            </mask>
                                            <g id="Clip-2"></g>
                                            <path d="M0,0.566108374 L0,7.57672414 C0,7.68517241 0.043546798,7.78901478 0.119753695,7.86522167 L0.119753695,7.86522167 L8.05406404,15.7919951 C8.13027094,15.868202 8.23453202,15.91133 8.34256158,15.91133 L8.34256158,15.91133 L15.3452217,15.91133 C15.7090887,15.91133 15.8912315,15.4716749 15.6337192,15.2141626 L15.6337192,15.2141626 L0.697167488,0.277610837 C0.613842365,0.194285714 0.511674877,0.157019704 0.411182266,0.157019704 L0.411182266,0.157019704 C0.201403941,0.157019704 0,0.319901478 0,0.566108374" id="Fill-1" fill="#FFD8B3" mask="url(#mask-2)"></path>
                                        </g>
                                        <g id="Group-6" transform="translate(0.000000, 17.170419)">
                                            <mask id="mask-4" fill="white">
                                                <use xlink:href="#path-3"></use>
                                            </mask>
                                            <g id="Clip-5"></g>
                                            <path d="M0,0.565270936 L0,7.57546798 C0,7.68433498 0.043546798,7.78775862 0.119753695,7.86480296 L0.119753695,7.86480296 L24.3765764,32.1212069 C24.453202,32.1978325 24.5574631,32.2413793 24.66633,32.2413793 L24.66633,32.2413793 L31.6761084,32.2413793 C32.0399754,32.2413793 32.2221182,31.8017241 31.9650246,31.5442118 L31.9650246,31.5442118 L0.697167488,0.27635468 C0.613842365,0.193029557 0.511674877,0.155763547 0.411182266,0.155763547 L0.411182266,0.155763547 C0.201403941,0.155763547 0,0.319064039 0,0.565270936" id="Fill-4" fill="#FFD8B3" mask="url(#mask-4)"></path>
                                        </g>
                                        <g id="Group-9" transform="translate(0.000000, 4.190123)">
                                            <mask id="mask-6" fill="white">
                                                <use xlink:href="#path-5"></use>
                                            </mask>
                                            <g id="Clip-8"></g>
                                            <path d="M0.289334975,4.09758621 C0.129802956,4.25669951 0.129802956,4.51546798 0.288916256,4.675 L0.288916256,4.675 L40.7083005,45.1019212 C40.7840887,45.1785468 40.8883498,45.2216749 40.996798,45.2216749 L40.996798,45.2216749 L48.0074138,45.2216749 C48.2477586,45.2216749 48.4089655,45.029064 48.4160837,44.8243103 L48.4160837,44.8243103 L48.4160837,44.7962562 C48.412734,44.7007882 48.375468,44.604064 48.2959113,44.5245074 L48.2959113,44.5245074 L4.08293103,0.311527094 L0.289334975,4.09758621 Z" id="Fill-7" fill="#FFD8B3" mask="url(#mask-6)"></path>
                                        </g>
                                        <g id="Group-12" transform="translate(3.768473, 0.421650)">
                                            <mask id="mask-8" fill="white">
                                                <use xlink:href="#path-7"></use>
                                            </mask>
                                            <g id="Clip-11"></g>
                                            <path d="M4.57325123,-0.00209359606 C4.51923645,-0.00209359606 4.46438424,0.0108866995 4.41874384,0.027635468 L4.41874384,0.027635468 C4.37687192,0.0443842365 4.33876847,0.0695073892 4.30527094,0.098817734 L4.30527094,0.098817734 L0.314876847,4.08083744 L4.39738916,8.16334975 L11.8677586,0.693399015 C12.1231773,0.437980296 11.9385222,-0.00209359606 11.5784236,-0.00209359606 L11.5784236,-0.00209359606 L4.57325123,-0.00209359606 Z" id="Fill-10" fill="#FFD8B3" mask="url(#mask-8)"></path>
                                        </g>
                                        <g id="Group-15" transform="translate(12.142857, 0.002931)">
                                            <mask id="mask-10" fill="white">
                                                <use xlink:href="#path-9"></use>
                                            </mask>
                                            <g id="Clip-14"></g>
                                            <path d="M12.5226355,0.416206897 C12.4146059,0.416206897 12.3107635,0.458916256 12.2337192,0.535541872 L12.2337192,0.535541872 L0.105517241,12.6641626 L4.18802956,16.7466749 L19.8221675,1.11295567 C20.0792611,0.855862069 19.8971182,0.416206897 19.5332512,0.416206897 L19.5332512,0.416206897 L12.5226355,0.416206897 Z" id="Fill-13" fill="#FFD8B3" mask="url(#mask-10)"></path>
                                        </g>
                                        <g id="Group-18" transform="translate(20.098522, 0.002931)">
                                            <mask id="mask-12" fill="white">
                                                <use xlink:href="#path-11"></use>
                                            </mask>
                                            <g id="Clip-17"></g>
                                            <path d="M20.8982759,0.416206897 C20.7898276,0.416206897 20.6855665,0.458916256 20.6097783,0.535541872 L20.6097783,0.535541872 L0.314876847,20.8300246 L4.3982266,24.9125369 L28.1973892,1.11295567 C28.2769458,1.03381773 28.3142118,0.937093596 28.3175616,0.841206897 L28.3175616,0.841206897 L28.3175616,0.813152709 C28.3104433,0.608399015 28.1492365,0.416206897 27.9088916,0.416206897 L27.9088916,0.416206897 L20.8982759,0.416206897 Z" id="Fill-16" fill="#FFD8B3" mask="url(#mask-12)"></path>
                                        </g>
                                        <g id="Group-25" transform="translate(3.768473, 0.421650)" fill="#140728" opacity="0.100000001">
                                            <path d="M8.48011084,4.08916995 L4.39759852,8.16330788 L0.315086207,4.08079557 L4.30506158,0.0987758621 C4.33855911,0.0694655172 4.37666256,0.0443423645 4.41853448,0.0275935961 L8.48011084,4.08916995 Z" id="Fill-19"></path>
                                            <polygon id="Fill-21" points="16.6451355 12.2536084 12.5626232 16.328165 8.47969212 12.245234 12.5626232 8.17109606"></polygon>
                                            <polygon id="Fill-23" points="24.8105788 20.4190099 20.7280665 24.4935665 16.6451355 20.4110542 20.7280665 16.3364975"></polygon>
                                        </g>
                                    </g>
                                </g>
                            </g>
                        </g>
                    </g>
                </g>
            </g>
        </g>
    </g>
</svg>