<svg xmlns="http://www.w3.org/2000/svg" width="60" height="60" viewBox="0 0 60 60">
    <g fill="none" fill-rule="evenodd">
        <path fill="#EDCDA6" d="M16.5 12.5L16.5 0.629 20.297 1.742 25.415 5.389 28.041 9.87 28.041 12.5z" transform="translate(15.6 15.6)"/>
        <path fill="#416C6C" fill-rule="nonzero" d="M23.738 2.371C21.655.879 19.106 0 16.354 0c-.472 0-.854.383-.854.855v11.852c0 .472.382.855.854.855h11.853c.472 0 .855-.382.855-.855 0-3.639-1.538-6.925-3.998-9.244l-1.326-1.092zm3.581 9.482H17.21V1.743c2.073.16 3.985.899 5.58 2.052L24.1 4.91c1.818 1.805 3.01 4.238 3.22 6.944z" transform="translate(15.6 15.6)"/>
        <path fill="#416C6C" fill-rule="nonzero" d="M21.848 25.172c2.207-2.287 3.567-5.396 3.567-8.818 0-.472-.383-.854-.855-.854H13.562V4.502c0-.472-.383-.855-.855-.855C5.701 3.647 0 9.347 0 16.354c0 7.007 5.7 12.708 12.707 12.708 2.962 0 5.69-1.019 7.853-2.724l1.288-1.166zm-2.2-.293c-1.894 1.545-4.31 2.473-6.94 2.473-6.065 0-10.998-4.933-10.998-10.998 0-5.776 4.476-10.527 10.143-10.965v10.965c0 .473.382.855.854.855h10.965c-.19 2.472-1.202 4.717-2.762 6.463L19.65 24.88z" transform="translate(15.6 15.6)"/>
    </g>
</svg>
