<svg xmlns="http://www.w3.org/2000/svg" width="60" height="60" viewBox="0 0 60 60">
    <g fill="none" transform="translate(16.8 18)" id="dashboard">
        <rect width="18" height="15.779" x="3.783" y="4.754" fill="#EDCDA6" rx=".897" class="primary-color"/>
        <path fill="#416C6C" stroke="#416C6C" stroke-width=".6" d="M9.802 24H2.198C.988 23.99.008 22.953 0 21.669V15.53c.009-1.284.987-2.322 2.198-2.331h7.604c.583 0 1.142.246 1.554.683.412.437.644 1.03.644 1.648v6.138c0 .618-.232 1.211-.644 1.648-.412.437-.97.683-1.554.683zM2.21 14.4c-.557 0-1.009.487-1.009 1.088v6.224c0 .6.452 1.088 1.009 1.088H9.79c.557 0 1.009-.487 1.009-1.088v-6.224c0-.6-.452-1.088-1.009-1.088H2.21zM24.194 24h-7.588c-1.215-.01-2.197-1.047-2.206-2.331V15.53c.009-1.284.991-2.322 2.206-2.331h7.588c.585 0 1.146.246 1.56.683.414.437.646 1.03.646 1.648v6.138c0 .618-.232 1.211-.646 1.648-.414.437-.975.683-1.56.683zm-7.58-9.6c-.56 0-1.014.487-1.014 1.088v6.224c0 .6.454 1.088 1.014 1.088h7.572c.56 0 1.014-.487 1.014-1.088v-6.224c0-.6-.454-1.088-1.014-1.088h-7.572zM9.802 10.8H2.198C.988 10.79.008 9.753 0 8.469V2.33C.009 1.047.987.01 2.198 0h7.604c.583 0 1.142.246 1.554.683.412.437.644 1.03.644 1.648V8.47c0 1.287-.984 2.331-2.198 2.331zM2.21 1.2c-.557 0-1.009.487-1.009 1.088v6.224c0 .6.452 1.088 1.009 1.088H9.79c.557 0 1.009-.487 1.009-1.088V2.288c0-.6-.452-1.088-1.009-1.088H2.21zM24.194 10.8h-7.588c-1.215-.01-2.197-1.047-2.206-2.331V2.33C14.409 1.047 15.391.01 16.606 0h7.588c.585 0 1.146.246 1.56.683.414.437.646 1.03.646 1.648V8.47c0 1.287-.988 2.331-2.206 2.331zm-7.58-9.6c-.269 0-.527.115-.717.319-.19.204-.297.48-.297.77v6.223c0 .288.107.565.297.77.19.203.448.318.717.318h7.572c.56 0 1.014-.487 1.014-1.088V2.288c0-.6-.454-1.088-1.014-1.088h-7.572z"/>
    </g>
</svg>
